<svg id="Layer_1" data-name="Layer 1" xmlns="http://www.w3.org/2000/svg" viewBox="0 0 200 150"><defs><style>.cls-1,.cls-2,.cls-3{font-size:31.58px;}.cls-1,.cls-12{fill:#f8f7f9;}.cls-1,.cls-11,.cls-2,.cls-3,.cls-4{font-family:Raleway-Bold, Raleway;font-weight:700;}.cls-2{fill:#7d3aea;}.cls-3{fill:#8150e2;}.cls-11,.cls-4{font-size:76.96px;letter-spacing:-0.03em;}.cls-4{fill:#69686d;}.cls-5{fill:#083b5a;}.cls-6{fill:#61b9d9;}.cls-7{fill:#2994b4;}.cls-8,.cls-9{fill:none;stroke:#083b5a;stroke-miterlimit:10;}.cls-8{stroke-width:3.41px;}.cls-9{stroke-linecap:round;stroke-width:5.68px;}.cls-10{fill:#8dc5dc;}.cls-11{fill:#ffce55;}</style></defs><title>LogoAchei_final</title><text class="cls-1" transform="translate(95.11 85.8)">CHE!</text><text class="cls-2" transform="translate(94.72 85.8)">CHE!</text><text class="cls-3" transform="translate(94.03 85.8)">CHE!</text><text class="cls-4" transform="translate(56.73 95.23)">A</text><text class="cls-4" transform="translate(57.43 96.05)">A</text><path class="cls-5" d="M78,65.8A16.14,16.14,0,1,1,67.92,45.31,16.14,16.14,0,0,1,78,65.8Z"/><path class="cls-6" d="M75.88,65.08A13.9,13.9,0,1,1,67.2,47.43,13.9,13.9,0,0,1,75.88,65.08Z"/><path class="cls-7" d="M60.52,73.81a13.91,13.91,0,0,1,3.61-27.05,13.91,13.91,0,0,0-5.89,27,13.76,13.76,0,0,0,5.35.71A13.93,13.93,0,0,1,60.52,73.81Z"/><line class="cls-8" x1="57.52" y1="75.88" x2="55.9" y2="80.63"/><line class="cls-9" x1="56.22" y1="79.85" x2="50.16" y2="97.67"/><path class="cls-10" d="M73.67,64.93c-1.89.52-4.23-2-5.22-5.65s-.27-7,1.62-7.52,4.23,2,5.22,5.65S75.56,64.41,73.67,64.93Z"/><text class="cls-11" transform="translate(56.27 95.46)">A</text><path class="cls-12" d="M140.47,29.29c-.85.65-2.55-.14-3.81-1.77s-1.59-3.48-.74-4.13,2.55.14,3.81,1.77S141.31,28.63,140.47,29.29Z"/></svg>