<svg id="Layer_1" data-name="Layer 1" xmlns="http://www.w3.org/2000/svg" viewBox="0 0 200 150"><defs><style>.cls-1{fill:#9664f9;}.cls-2{fill:#6d3dc9;}.cls-3{fill:#8150e2;}.cls-4,.cls-5,.cls-6{font-size:31.58px;}.cls-16,.cls-4{fill:#f8f7f9;}.cls-14,.cls-4,.cls-5,.cls-6,.cls-7{font-family:Raleway-Bold, Raleway;font-weight:700;}.cls-5{fill:#13a31a;}.cls-6{fill:#39b23c;}.cls-14,.cls-7{font-size:76.96px;letter-spacing:-0.03em;}.cls-7{fill:#69686d;}.cls-8{fill:#083b5a;}.cls-9{fill:#61b9d9;}.cls-10{fill:#2994b4;}.cls-11,.cls-12{fill:none;stroke:#083b5a;stroke-miterlimit:10;}.cls-11{stroke-width:3.41px;}.cls-12{stroke-linecap:round;stroke-width:5.68px;}.cls-13{fill:#8dc5dc;}.cls-14{fill:#f9f9f7;}.cls-15{fill:#cea4f7;}</style></defs><title>LogoAchei_</title><ellipse class="cls-1" cx="98.57" cy="74.62" rx="68.34" ry="69.51"/><ellipse class="cls-2" cx="101.53" cy="74.79" rx="68.34" ry="69.51"/><ellipse class="cls-3" cx="106.52" cy="75.38" rx="68.34" ry="69.51"/><text class="cls-4" transform="translate(93.61 85.38)">CHE!</text><text class="cls-5" transform="translate(93.38 85.21)">CHE!</text><text class="cls-6" transform="translate(92.91 84.61)">CHE!</text><text class="cls-7" transform="translate(56.73 95.23)">A</text><text class="cls-7" transform="translate(57.43 96.05)">A</text><path class="cls-8" d="M78,65.8A16.14,16.14,0,1,1,67.92,45.31,16.14,16.14,0,0,1,78,65.8Z"/><path class="cls-9" d="M75.88,65.08A13.9,13.9,0,1,1,67.2,47.43,13.9,13.9,0,0,1,75.88,65.08Z"/><path class="cls-10" d="M60.52,73.81a13.91,13.91,0,0,1,3.61-27.05,13.91,13.91,0,0,0-5.89,27,13.76,13.76,0,0,0,5.35.71A13.93,13.93,0,0,1,60.52,73.81Z"/><line class="cls-11" x1="57.52" y1="75.88" x2="55.9" y2="80.63"/><line class="cls-12" x1="56.22" y1="79.85" x2="50.16" y2="97.67"/><path class="cls-13" d="M73.67,64.93c-1.89.52-4.23-2-5.22-5.65s-.27-7,1.62-7.52,4.23,2,5.22,5.65S75.56,64.41,73.67,64.93Z"/><text class="cls-14" transform="translate(56.27 95.46)">A</text><path class="cls-15" d="M145.38,35.58c-1.77,2.06-6.43,1-10.4-2.45s-5.76-7.86-4-9.92,6.44-1,10.41,2.44S147.16,33.51,145.38,35.58Z"/><path class="cls-16" d="M140.47,29.29c-.85.65-2.55-.14-3.81-1.77s-1.59-3.48-.74-4.13,2.55.14,3.81,1.77S141.31,28.63,140.47,29.29Z"/></svg>